<svg width="14" height="15" viewBox="0 0 14 15" fill="none" xmlns="http://www.w3.org/2000/svg">
<path d="M3 0.5H2C1.46957 0.5 0.960859 0.710714 0.585786 1.08579C0.210714 1.46086 0 1.96957 0 2.5V13C0 13.5304 0.210714 14.0391 0.585786 14.4142C0.960859 14.7893 1.46957 15 2 15H12C12.5304 15 13.0391 14.7893 13.4142 14.4142C13.7893 14.0391 14 13.5304 14 13V2.5C14 1.96957 13.7893 1.46086 13.4142 1.08579C13.0391 0.710714 12.5304 0.5 12 0.5H11V1.5C11 1.8283 10.9353 2.15339 10.8097 2.45671C10.6841 2.76002 10.4999 3.03562 10.2678 3.26777C10.0356 3.49991 9.76002 3.68406 9.45671 3.8097C9.15339 3.93534 8.8283 4 8.5 4H5.5C4.83696 4 4.20107 3.73661 3.73223 3.26777C3.26339 2.79893 3 2.16304 3 1.5V0.5ZM9.854 7.854L6.854 10.854C6.80755 10.9006 6.75238 10.9375 6.69163 10.9627C6.63089 10.9879 6.56577 11.0009 6.5 11.0009C6.43423 11.0009 6.36911 10.9879 6.30837 10.9627C6.24762 10.9375 6.19245 10.9006 6.146 10.854L4.646 9.354C4.55211 9.26011 4.49937 9.13278 4.49937 9C4.49937 8.86722 4.55211 8.73989 4.646 8.646C4.73989 8.55211 4.86722 8.49937 5 8.49937C5.13278 8.49937 5.26011 8.55211 5.354 8.646L6.5 9.793L9.146 7.146C9.23989 7.05211 9.36722 6.99937 9.5 6.99937C9.63278 6.99937 9.76011 7.05211 9.854 7.146C9.94789 7.23989 10.0006 7.36722 10.0006 7.5C10.0006 7.63278 9.94789 7.76011 9.854 7.854Z" fill="white"/>
</svg>
